<?xml version="1.0" encoding="UTF-8"?>
<svg width="322px" height="225px" viewBox="0 0 322 225" version="1.1" xmlns="http://www.w3.org/2000/svg" xmlns:xlink="http://www.w3.org/1999/xlink">
    <!-- Generator: Sketch 52.2 (67145) - http://www.bohemiancoding.com/sketch -->
    <title>jt-logo</title>
    <desc>Created with Sketch.</desc>
    <defs>
        <filter x="-7.0%" y="-10.3%" width="114.1%" height="120.6%" filterUnits="objectBoundingBox" id="filter-1">
            <feOffset dx="0" dy="2" in="SourceAlpha" result="shadowOffsetOuter1"></feOffset>
            <feGaussianBlur stdDeviation="4.5" in="shadowOffsetOuter1" result="shadowBlurOuter1"></feGaussianBlur>
            <feColorMatrix values="0 0 0 0 0.933333333   0 0 0 0 0.509803922   0 0 0 0 0.933333333  0 0 0 1 0" type="matrix" in="shadowBlurOuter1" result="shadowMatrixOuter1"></feColorMatrix>
            <feMerge>
                <feMergeNode in="shadowMatrixOuter1"></feMergeNode>
                <feMergeNode in="SourceGraphic"></feMergeNode>
            </feMerge>
        </filter>
    </defs>
    <g id="Page-1" stroke="none" stroke-width="1" fill="none" fill-rule="evenodd">
        <g id="jt-logo" filter="url(#filter-1)" transform="translate(9.000000, 5.000000)" fill="#EE82EE" fill-rule="nonzero">
            <path d="M130.4,76.1 C127.5,75.7 124.7,75 122,75.1 C120.3,75.4 118.8,76.4 117.9,77.8 C112.5,86.1 107.3,94.7 102,103 C95.9,112.5 73,123.6 59.9,119.9 C51,117.4 46.9,111.4 48.9,102.5 C52.2,87.4 62.6,79 75.9,73.4 C85.3,69.5 95.4,67.5 105.5,67.6 L114.6,67.6 C112.5,48.2 122.3,36.4 137.7,28.4 C151.9,21 167.2,18.8 183.1,20.1 C185.3,20.3 188.7,19.1 189.7,17.4 C193.1,11.9 195.8,5.8 198.7,0.1 L196.7,19.8 C231.2,39.5 267.7,41.1 305.6,30.8 C299.8,38.4 292.4,43 283.8,45.8 C266.6,51.5 249.8,50 233.1,43.4 C230,42.2 226.7,41.3 223.9,39.7 C219.5,37.3 217,38.1 214.3,42.5 C199.3,66.1 184,89.5 168.6,112.9 C163.8,120.3 159.1,127.8 153.3,134.4 C145.6,143.1 135.2,147.4 123.7,147.8 C118.7,148 113.7,146.7 108.7,146.5 C105,146.4 102.7,148.3 100.4,151.6 C89.6,166.6 78.9,181.6 67,195.7 C49.5,216.4 19.2,209 6.1,193.5 C2.9,189.7 1.1,184 0.5,178.9 C-2.7,149.5 13.5,132.9 40.5,128.9 C57.1,126.4 73.3,128.7 89.1,133.8 C90.3,134.2 92.7,133.8 93.2,132.9 C105.8,114.5 118.1,95.9 130.5,77.4 C130.6,76.9 130.5,76.7 130.4,76.1 Z M87.8,141.5 C85.7,140.7 84.5,140.1 83.3,139.7 C70,136.1 56.7,136 43.5,140 C27.4,145 14.8,154 9.3,170.7 C5.3,182.7 11.1,194.5 23,198.2 C34.2,201.7 44.2,198.7 52.2,190.5 C56.4,186.3 59.9,181.3 63.3,176.4 C71.4,165.2 79.3,153.7 87.8,141.5 Z M204.8,31.6 C196.4,25.9 194.4,26.3 189.6,33.7 C181.7,46.2 172.4,57.3 160.2,65.9 C156.1,68.7 152.6,72.2 149.7,76.2 C138.6,92.4 128,108.9 117.3,125.3 C114.5,129.6 111.9,133.9 108.4,139.5 C112.3,140.2 115.3,141.6 117.8,141 C128.7,138.6 138,133.5 144.2,123.8 C148.3,117.2 152.5,110.6 156.8,104.2 C168,87.3 179.3,70.4 190.5,53.5 C195.2,46.2 199.9,39 204.8,31.6 Z M182.8,27.4 C180.4,27.2 179.4,26.9 178.6,27 C159.8,30.1 142.1,37.8 126.9,49.4 C123.4,52.1 121,56.5 119,60.6 C117.6,63.6 119.1,67.1 122.9,67.1 C127.7,67.1 133.1,67 137.3,65.1 C151,58.7 162.6,49.2 173.1,38.3 C176.1,35 179,31.6 182.8,27.4 Z M114.1,74.7 C112.4,74.6 110.6,74.6 108.9,74.7 C89.7,78.1 72.3,85.6 57.6,98.7 C55.5,100.6 54.2,103.6 53.4,106.4 C51.7,112.1 55.5,116.1 61.2,114.7 C65,113.7 68.7,112.2 72.2,110.3 C88.2,101.7 101.7,90 114.1,74.7 Z" id="Shape"></path>
        </g>
    </g>
</svg>