<?xml version="1.0" encoding="UTF-8"?>
<svg width="448px" height="448px" viewBox="0 0 448 448" version="1.1" xmlns="http://www.w3.org/2000/svg" xmlns:xlink="http://www.w3.org/1999/xlink">
    <!-- Generator: Sketch 52.2 (67145) - http://www.bohemiancoding.com/sketch -->
    <title>paper-plane-outline</title>
    <desc>Created with Sketch.</desc>
    <g id="Page-1" stroke="none" stroke-width="1" fill="none" fill-rule="evenodd" stroke-linecap="round" stroke-linejoin="round">
        <g id="paper-plane-outline" transform="translate(15.000000, 16.000000)" stroke="#F8F8F8" stroke-width="32">
            <path d="M6.12,151.94 L406.12,0.55 C409.067837,-0.577469604 412.403045,0.133564287 414.63474,2.36525975 C416.866436,4.59695521 417.57747,7.93216324 416.45,10.88 L265.06,410.88 C263.826792,413.99109 260.787414,416.005809 257.441681,415.929972 C254.095947,415.854136 251.150978,413.703771 250.06,410.54 L182.66,244.45 C181.066884,239.677953 177.322047,235.933116 172.55,234.34 L6.46,167 C3.25408457,165.933322 1.06394154,162.967558 0.987681943,159.589707 C0.911422349,156.211856 2.96548985,153.150273 6.12,151.94 Z" id="Path"></path>
            <path d="M413,4 L180,237" id="Path"></path>
        </g>
    </g>
</svg>